# xmcd
#
# Track frame offsets:
#	300
#	13682
#	24210
#	37785
#	50950
#	67792
#	85080
#	95725
#	108460
#	122545
#	135492
#	150287
#	163227
#	174355
#	185175
#	203982
#	219052
#	230767
#	241855
#	253992
#
# Disc length: 3647 seconds
#
# Revision: 1
# Processed by: cddbd v1.5.1PL0 Copyright (c) Steve Scherf et al.
# Submitted via: MusicWizard 7.0.2
#
DISCID=090e3b14
DTITLE=Various Artist - The Winning Hand
DYEAR=2001
DGENRE=Country
TTITLE0=Brenda Lee and Willie Nelson - You're Gonna Love Yourself In The Morning
TTITLE1=Dolly Parton and Kris Kristofferson - Ping Pong
TTITLE2=Willie Nelson - You'll Always Have Someone
TTITLE3=Kris Kristofferson - Here Comes That Rainbow Again
TTITLE4=Kris Kristofferson and Brenda Lee - The Bigger The Fool, The Harder The Fall
TTITLE5=Kris Kristofferson and Brenda Lee - Help Me Make It Through The Night
TTITLE6=Dolly Parton and Willie Nelson - Happy, Happy Birthday Baby
TTITLE7=Willie Nelson and Brenda Lee - You Left Me A Long, Long Time Ago
TTITLE8=Willie Nelson and Kris Kritofferson - To Make A Long Story Short, She's Gone
TTITLE9=Brenda Lee - Someone Loves You Honey
TTITLE10=Dolly Parton and Willie Nelson - Everybody's Beautiful
TTITLE11=Brenda Lee - Bring On The Sunshine
TTITLE12=Dolly Parton and Kris Kristofferson - Pui It Off Until Tomorrow
TTITLE13=Willie Nelson - I Never Cared For You
TTITLE14=Kris Kristofferson and Willie Nelson - Casey's Last Ride
TTITLE15=Willie Nelson - King Of A Lonely Castle
TTITLE16=Dolly Parton - The Little Things
TTITLE17=Kris Kristofferson - The Bandits Of Beverly Hills
TTITLE18=Dolly Parton and Brenda Lee - What Do You Think About Lovin'
TTITLE19=Brenda Lee and Kris Kristofferson - Born To Love Me
EXTD=(p)1982/(c)2001 Monument/CBS\nupc 0746488611101\nYEAR: 2001
EXTT0=
EXTT1=
EXTT2=
EXTT3=
EXTT4=
EXTT5=
EXTT6=
EXTT7=
EXTT8=
EXTT9=
EXTT10=
EXTT11=
EXTT12=
EXTT13=
EXTT14=
EXTT15=
EXTT16=
EXTT17=
EXTT18=
EXTT19=
PLAYORDER=
